<svg width="732" height="732" viewBox="0 0 732 732" fill="none" xmlns="http://www.w3.org/2000/svg">
<path d="M683.527 462.917H443.592V324.071H683.527V462.917ZM445.056 461.453H682.063V325.535H445.056V461.453Z" fill="#C4CFC3"/>
<path d="M634.029 398.105H475.727V402.746H634.029V398.105Z" fill="#DFE8DD"/>
<path d="M644.936 415.41H475.727V420.475H644.936V415.41Z" fill="#DFE8DD"/>
<path d="M644.936 432.919H475.727V437.985H644.936V432.919Z" fill="#DFE8DD"/>
<path d="M531.051 372.969H475.727V385.017H531.051V372.969Z" fill="#DFE8DD"/>
<path d="M682.795 324.803H444.368V346.909H682.795V324.803Z" fill="#C4CFC3"/>
<path d="M664.451 343.601C664.144 343.308 667.218 339.604 671.303 335.329C675.387 331.054 678.974 327.819 679.267 328.097C679.56 328.375 676.5 332.094 672.415 336.383C668.331 340.673 664.744 343.894 664.451 343.601Z" fill="white"/>
<path d="M679.296 343.601C679.003 343.894 675.431 340.673 671.332 336.383C667.233 332.094 664.173 328.39 664.481 328.097C664.788 327.804 668.345 331.025 672.445 335.329C676.544 339.633 679.574 343.308 679.296 343.601Z" fill="white"/>
<path d="M388.282 49.8492H149.855V187.246H388.282V49.8492Z" fill="#DFE7DE"/>
<path d="M339.531 123.166H181.229V127.807H339.531V123.166Z" fill="#DFE8DD"/>
<path d="M350.438 140.471H181.229V145.536H350.438V140.471Z" fill="#DFE8DD"/>
<path d="M350.438 157.98H181.229V163.046H350.438V157.98Z" fill="#DFE8DD"/>
<path d="M236.553 98.0294H181.229V110.078H236.553V98.0294Z" fill="#DFE8DD"/>
<path d="M388.282 49.8492H149.855V71.9556H388.282V49.8492Z" fill="#C4CFC3"/>
<path d="M369.133 68.5444C368.826 68.2663 371.9 64.5477 375.985 60.2728C380.069 55.998 383.656 52.7625 383.949 53.0553C384.242 53.3481 381.182 57.052 377.097 61.3269C373.013 65.6018 369.426 68.808 369.133 68.5444Z" fill="white"/>
<path d="M383.949 68.5445C383.656 68.8373 380.084 65.6165 375.985 61.3269C371.885 57.0374 368.826 53.3481 369.133 53.0553C369.441 52.7625 372.998 55.9833 377.097 60.2729C381.196 64.5624 384.256 68.2663 383.949 68.5445Z" fill="white"/>
<path d="M297.983 305.083H58.0916V166.223H297.983V305.083ZM59.5556 303.619H296.519V167.687H59.5556V303.619Z" fill="#C4CFC3"/>
<path d="M248.499 240.272H90.197V244.913H248.499V240.272Z" fill="#DFE8DD"/>
<path d="M259.406 257.576H90.197V262.642H259.406V257.576Z" fill="#DFE8DD"/>
<path d="M259.406 275.086H90.197V280.151H259.406V275.086Z" fill="#DFE8DD"/>
<path d="M145.522 215.135H90.197V227.184H145.522V215.135Z" fill="#DFE8DD"/>
<path d="M297.25 166.955H58.8235V189.061H297.25V166.955Z" fill="#C4CFC3"/>
<path d="M574.84 336.896H293.312V588.938H574.84V336.896Z" fill="#DFE7DE"/>
<path d="M307.469 257.503H86.9324V486.634H307.469V257.503Z" fill="#DFE8DD"/>
<path d="M307.469 257.503H86.9324V282.464H307.469V257.503Z" fill="#C4CFC3"/>
<path d="M105.144 269.727C105.104 270.632 104.799 271.506 104.267 272.239C103.735 272.973 102.999 273.534 102.151 273.852C101.303 274.171 100.38 274.234 99.4965 274.033C98.613 273.832 97.808 273.376 97.1814 272.722C96.5547 272.068 96.134 271.243 95.9715 270.352C95.809 269.461 95.9118 268.541 96.2672 267.708C96.6226 266.874 97.2148 266.164 97.9706 265.664C98.7263 265.164 99.6121 264.897 100.518 264.896C101.771 264.927 102.961 265.452 103.828 266.357C104.695 267.263 105.168 268.474 105.144 269.727Z" fill="white"/>
<path d="M123.928 269.727C123.89 270.637 123.586 271.515 123.053 272.253C122.521 272.991 121.783 273.556 120.931 273.878C120.08 274.2 119.153 274.264 118.265 274.063C117.377 273.862 116.568 273.404 115.939 272.747C115.309 272.089 114.887 271.261 114.724 270.366C114.562 269.47 114.666 268.546 115.025 267.71C115.383 266.873 115.979 266.16 116.74 265.66C117.5 265.16 118.391 264.894 119.301 264.896C120.554 264.927 121.744 265.452 122.611 266.357C123.478 267.263 123.951 268.474 123.928 269.727Z" fill="white"/>
<path d="M142.711 269.727C142.673 270.637 142.369 271.515 141.837 272.253C141.304 272.991 140.566 273.556 139.714 273.878C138.863 274.2 137.936 274.264 137.048 274.063C136.16 273.862 135.351 273.404 134.722 272.747C134.092 272.089 133.67 271.261 133.507 270.366C133.345 269.47 133.449 268.546 133.808 267.71C134.166 266.873 134.763 266.16 135.523 265.66C136.283 265.16 137.174 264.894 138.084 264.896C139.337 264.927 140.527 265.452 141.394 266.357C142.261 267.263 142.734 268.474 142.711 269.727Z" fill="white"/>
<path d="M652.036 99.9619H370.509V380.552H652.036V99.9619Z" fill="#DFE8DD"/>
<path d="M652.036 99.9619H370.509V132.829H652.036V99.9619Z" fill="#C4CFC3"/>
<path d="M394.489 116.066C394.438 117.261 394.036 118.414 393.335 119.383C392.634 120.352 391.663 121.093 390.544 121.515C389.425 121.937 388.207 122.021 387.04 121.756C385.874 121.492 384.811 120.89 383.983 120.027C383.156 119.164 382.6 118.076 382.385 116.9C382.17 115.723 382.305 114.51 382.774 113.409C383.243 112.309 384.024 111.371 385.022 110.711C386.019 110.051 387.189 109.699 388.385 109.698C390.037 109.736 391.608 110.428 392.752 111.621C393.896 112.815 394.521 114.413 394.489 116.066Z" fill="white"/>
<path d="M417.43 111.762C418.242 112.643 418.776 113.744 418.967 114.927C419.157 116.11 418.995 117.322 418.501 118.414C418.007 119.506 417.203 120.428 416.189 121.065C415.174 121.703 413.995 122.028 412.797 122C411.599 121.972 410.436 121.593 409.453 120.908C408.469 120.224 407.709 119.265 407.266 118.152C406.824 117.038 406.719 115.819 406.964 114.647C407.209 113.474 407.794 112.399 408.646 111.557C409.839 110.421 411.434 109.805 413.081 109.844C414.727 109.882 416.291 110.572 417.43 111.762Z" fill="white"/>
<path d="M443.943 116.066C443.892 117.261 443.49 118.414 442.789 119.383C442.087 120.352 441.117 121.093 439.998 121.515C438.879 121.937 437.66 122.021 436.494 121.756C435.328 121.492 434.265 120.89 433.437 120.027C432.61 119.164 432.054 118.076 431.839 116.9C431.624 115.723 431.759 114.51 432.228 113.409C432.697 112.309 433.478 111.371 434.476 110.711C435.473 110.051 436.643 109.699 437.838 109.698C439.491 109.736 441.062 110.428 442.206 111.621C443.35 112.815 443.975 114.413 443.943 116.066Z" fill="white"/>
<path d="M591.222 663.382C591.222 663.587 489.562 663.763 364.199 663.763C238.837 663.763 137.133 663.587 137.133 663.382C137.133 663.177 238.778 663.002 364.199 663.002C489.62 663.002 591.222 663.192 591.222 663.382Z" fill="#263238"/>
<path d="M492.168 484.16C469.549 468.363 464.425 439.039 465.318 412.672C465.464 408.28 464.981 403.625 467.075 399.775C469.168 395.924 474.058 393.274 477.996 395.119C481.261 396.656 482.681 400.463 484.511 403.61C486.953 407.803 490.531 411.218 494.832 413.463C497.628 414.927 501.098 415.805 503.865 414.283C507.671 412.189 508.111 406.963 508.081 402.571C508.081 394.402 508.032 386.242 507.935 378.093C507.672 373.717 508.117 369.327 509.252 365.092C510.614 360.935 513.644 357.084 517.788 355.913C521.931 354.742 527.099 357.157 528.036 361.432C528.197 363.243 528.241 365.062 528.167 366.878C528.284 368.708 529.134 370.714 530.846 371.27C532.559 371.827 534.345 370.553 535.663 369.265C540.172 364.873 543.246 359.149 546.101 353.497C548.956 347.846 551.752 342.034 555.852 337.218C559.951 332.401 565.616 328.58 571.956 328.214C578.295 327.848 584.897 331.742 586.478 337.891C588.06 344.04 584.473 350.321 580.622 355.313C574.812 362.723 567.963 369.256 560.287 374.711C558.789 375.529 557.593 376.807 556.876 378.356C555.925 381.284 558.692 384.212 561.576 385.135C564.84 386.218 568.383 385.881 571.824 386.291C575.264 386.701 578.924 388.194 580.227 391.415C582.013 395.895 578.265 400.58 574.591 403.654C567.212 409.803 558.834 414.641 549.82 417.957C546.599 419.129 543.217 420.168 540.611 422.423C538.005 424.677 536.454 428.615 538.02 431.704C539.587 434.793 543.613 435.774 546.994 435.145C550.376 434.515 553.377 432.7 556.598 431.485C562.615 429.216 570.374 429.626 574.166 434.823C575.341 436.613 576.084 438.651 576.338 440.777C576.592 442.904 576.35 445.06 575.63 447.076C574.165 451.09 571.91 454.769 568.998 457.895C559.41 469.352 546.951 478.056 532.896 483.12C518.944 487.951 506.017 489.269 492.153 484.189" fill="#6AB058"/>
<path d="M580.037 331.83C580.037 331.83 579.905 331.977 579.612 332.24L578.309 333.397C577.167 334.422 575.484 335.915 573.361 337.891C567.342 343.48 561.753 349.514 556.642 355.942C553.377 359.998 549.995 364.595 546.394 369.587C542.793 374.579 539.074 379.967 535.385 385.691C531.452 391.727 527.85 397.973 524.595 404.401C522.897 407.753 521.404 411.252 519.866 414.824L515.328 425.731C509.346 439.469 504.136 453.531 499.722 467.851C496.166 479.567 493.716 491.59 492.402 503.762C491.55 511.977 491.413 520.251 491.992 528.489C492.226 531.417 492.446 533.657 492.651 535.18C492.738 535.912 492.797 536.497 492.856 536.922V537.522C492.793 537.332 492.748 537.136 492.724 536.937C492.651 536.512 492.563 535.941 492.446 535.209C492.182 533.745 491.904 531.432 491.64 528.504C490.934 520.25 490.983 511.949 491.787 503.704C493.019 491.479 495.417 479.4 498.946 467.631C503.323 453.271 508.518 439.174 514.508 425.409L519.164 414.546C520.701 410.989 522.209 407.461 523.922 404.093C527.199 397.646 530.83 391.385 534.799 385.339C538.547 379.483 542.324 374.184 545.882 369.236C549.439 364.287 552.88 359.661 556.13 355.62C561.293 349.209 566.957 343.217 573.068 337.701C575.235 335.754 576.962 334.29 578.134 333.309L579.495 332.211C579.662 332.066 579.843 331.938 580.037 331.83Z" fill="#263238"/>
<path d="M524.112 404.064C523.905 403.461 523.763 402.838 523.687 402.205C523.453 400.99 523.19 399.277 522.882 397.051C522.253 392.659 521.609 386.642 520.92 379.981C520.232 373.32 519.457 367.288 518.812 362.94C518.476 360.774 518.183 359.031 517.978 357.816C517.818 357.194 517.734 356.555 517.729 355.913C517.981 356.5 518.163 357.114 518.271 357.743C518.593 358.944 518.959 360.671 519.369 362.852C520.203 367.244 521.023 373.218 521.711 379.893C522.399 386.569 522.985 392.425 523.439 396.978C523.658 399.028 523.848 400.77 523.995 402.161C524.109 402.788 524.148 403.427 524.112 404.064Z" fill="#263238"/>
<path d="M580.447 393.553C579.734 393.708 579.009 393.796 578.28 393.816C576.816 393.948 574.737 394.123 572.161 394.416C567.007 394.973 559.922 395.997 552.148 397.461C544.374 398.925 537.391 400.58 532.369 401.853C529.866 402.498 527.845 403.083 526.513 403.479C525.802 403.731 525.066 403.908 524.317 404.006C524.994 403.665 525.699 403.386 526.425 403.171C527.801 402.688 529.792 402.014 532.281 401.297C537.273 399.833 544.257 398.091 552.06 396.598C558.67 395.334 565.34 394.405 572.043 393.816C574.635 393.596 576.728 393.509 578.192 393.479C578.944 393.428 579.7 393.453 580.447 393.553Z" fill="#263238"/>
<path d="M499.663 466.606C499.507 466.394 499.379 466.163 499.283 465.918L498.316 463.883C497.482 462.112 496.355 459.491 495.008 456.285C492.285 449.843 488.815 440.825 485.126 430.811C481.437 420.798 478.04 411.779 475.463 405.265C474.204 402.102 473.165 399.511 472.389 397.579L471.569 395.485C471.456 395.244 471.377 394.987 471.335 394.724C471.491 394.936 471.619 395.167 471.716 395.412L472.682 397.447C473.502 399.218 474.644 401.839 475.99 405.045C478.714 411.487 482.183 420.505 485.872 430.519C489.562 440.532 492.958 449.551 495.535 456.065C496.794 459.228 497.833 461.819 498.595 463.751C498.931 464.586 499.21 465.215 499.429 465.845C499.543 466.086 499.622 466.343 499.663 466.606Z" fill="#263238"/>
<path d="M574.444 442.494C574.21 442.629 573.959 442.732 573.698 442.801L571.531 443.533L563.523 446.125C556.759 448.321 547.419 451.454 537.171 454.909C526.923 458.364 517.539 461.438 510.731 463.488C507.335 464.527 504.568 465.318 502.65 465.845L500.439 466.416C500.182 466.497 499.917 466.551 499.649 466.577C499.883 466.442 500.134 466.339 500.395 466.269L502.562 465.537L510.57 462.946C517.334 460.75 526.674 457.617 536.922 454.162C547.17 450.707 556.54 447.633 563.347 445.583C566.758 444.544 569.511 443.753 571.443 443.226L573.654 442.655C573.911 442.573 574.176 442.519 574.444 442.494Z" fill="#263238"/>
<path d="M543.935 87.3715L536.395 90.0653L533.16 80.2126C527.216 62.0443 508.272 52.3966 490.865 58.5307C473.458 64.6649 464.191 84.5899 470.134 102.758L473.37 112.611L465.801 115.319C462.915 116.439 460.571 118.627 459.257 121.43C457.943 124.233 457.759 127.435 458.744 130.369L479.724 194.478C480.159 195.93 480.882 197.281 481.85 198.449C482.817 199.617 484.01 200.578 485.357 201.276C486.703 201.974 488.176 202.394 489.688 202.511C491.2 202.628 492.721 202.441 494.159 201.959L572.292 174.011C575.217 172.894 577.594 170.686 578.923 167.851C580.253 165.017 580.432 161.778 579.422 158.815L558.428 94.7062C557.981 93.2575 557.247 91.9136 556.27 90.7548C555.292 89.596 554.091 88.646 552.739 87.9614C551.386 87.2769 549.909 86.8719 548.397 86.7705C546.884 86.6692 545.367 86.8736 543.935 87.3715ZM484.379 97.6195C482.776 92.8955 483.064 87.7346 485.182 83.2179C487.3 78.7013 491.083 75.1795 495.74 73.3903C498.039 72.6036 500.473 72.2881 502.897 72.4627C505.321 72.6373 507.685 73.2983 509.848 74.4064C512.011 75.5145 513.929 77.0469 515.486 78.9123C517.044 80.7776 518.21 82.9376 518.915 85.2634L522.136 95.1161L487.6 107.472L484.379 97.6195ZM528.299 154.511L533.657 170.878C533.756 171.206 533.724 171.56 533.569 171.865C533.413 172.17 533.146 172.404 532.823 172.518L525.313 175.197C525.014 175.28 524.694 175.244 524.421 175.096C524.148 174.949 523.943 174.702 523.849 174.406L518.446 158.112C515.468 157.95 512.61 156.881 510.255 155.05C507.9 153.218 506.161 150.711 505.27 147.864C503.997 144.1 504.229 139.989 505.919 136.393C507.608 132.796 510.623 129.992 514.333 128.568C516.164 127.943 518.103 127.692 520.034 127.831C521.964 127.971 523.847 128.498 525.57 129.38C527.292 130.263 528.82 131.483 530.061 132.968C531.302 134.454 532.231 136.174 532.794 138.026C533.736 140.918 533.813 144.022 533.018 146.958C532.222 149.894 530.587 152.534 528.314 154.554L528.299 154.511Z" fill="#6AB058"/>
<path d="M536.058 89.8896C536.058 90.0946 522.077 95.3503 504.685 101.602C487.292 107.853 473.106 112.874 473.033 112.728C472.96 112.582 487.014 107.282 504.421 101.016C521.828 94.7501 535.985 89.6993 536.058 89.8896Z" fill="#263238"/>
<path d="M552.66 92.5834C552.725 92.7104 552.779 92.8426 552.821 92.9786C552.938 93.2714 553.07 93.6521 553.246 94.1206C553.626 95.1893 554.153 96.6679 554.812 98.5126L560.434 114.88C562.776 121.819 565.573 130.047 568.676 139.182C570.14 143.765 571.868 148.537 573.478 153.559C574.34 156.147 574.713 158.872 574.576 161.596C574.452 163.013 574.049 164.391 573.39 165.652C572.687 166.908 571.747 168.016 570.623 168.916C568.362 170.567 565.851 171.847 563.186 172.708L555.647 175.416L541.373 180.526L517.202 189.134L500.878 194.873L496.486 196.337L495.315 196.718C495.19 196.773 495.056 196.808 494.92 196.82C494.92 196.82 495.037 196.82 495.286 196.645L496.428 196.191L500.82 194.536L517.056 188.563L541.182 179.779L555.427 174.626L562.967 171.903C565.556 171.077 567.993 169.836 570.184 168.228C571.23 167.393 572.105 166.364 572.761 165.198C573.381 164.032 573.755 162.751 573.859 161.435C573.994 158.811 573.636 156.184 572.805 153.691C571.224 148.713 569.555 143.897 568.047 139.314C565.002 130.164 562.191 121.907 559.965 114.968C557.74 108.029 555.866 102.451 554.578 98.5272C553.963 96.6094 553.495 95.1161 553.114 94.0327L552.763 92.8615C552.718 92.7728 552.684 92.6795 552.66 92.5834Z" fill="#263238"/>
<path d="M511.434 72.3948C511.434 72.3948 510.658 72.0142 509.223 71.4286C507.178 70.6428 505.015 70.2072 502.826 70.1402C499.58 70.0289 496.35 70.6389 493.368 71.9263C489.742 73.5293 486.642 76.1222 484.423 79.4074C482.189 82.6831 480.991 86.5542 480.983 90.5191C481.013 93.7688 481.506 96.9976 482.447 100.108C483.208 102.773 483.998 104.896 484.526 106.374C484.836 107.125 485.091 107.898 485.287 108.687C484.871 107.985 484.523 107.245 484.247 106.477C483.647 105.013 482.783 102.934 481.934 100.255C480.892 97.1113 480.325 93.83 480.251 90.5191C480.212 86.4044 481.438 82.3772 483.764 78.9828C486.061 75.5777 489.288 72.9046 493.061 71.2821C496.135 69.9877 499.466 69.4167 502.796 69.6132C505.034 69.7272 507.231 70.2481 509.282 71.1504C509.83 71.4033 510.359 71.6969 510.863 72.0288C511.071 72.1203 511.264 72.2438 511.434 72.3948Z" fill="#263238"/>
<path d="M512.107 129.681C512.341 129.54 512.586 129.417 512.839 129.315C513.572 128.984 514.331 128.715 515.109 128.51C516.342 128.146 517.615 127.929 518.9 127.866C520.648 127.772 522.397 128.036 524.039 128.642C527.787 129.959 531.227 133.78 532.925 138.89C533.74 141.632 533.74 144.551 532.925 147.293C532.022 150.269 530.404 152.978 528.211 155.184L528.299 154.789C530.246 160.132 532.369 165.93 534.565 171.976L534.697 172.342L534.331 172.474L530.978 173.586L523.658 176.031L523.292 176.148L523.175 175.782C521.169 169.722 518.973 164.07 517.319 158.522L517.641 158.771C514.779 158.533 512.05 157.459 509.794 155.682C507.753 154.11 506.079 152.111 504.89 149.826C503.816 147.799 503.282 145.53 503.338 143.238C503.406 140.895 503.991 138.595 505.051 136.505C506.112 134.414 507.621 132.584 509.472 131.145C510.234 130.527 511.089 130.033 512.005 129.681C511.178 130.172 510.376 130.704 509.604 131.277C507.571 132.997 506.013 135.21 505.08 137.704C504.279 139.585 503.904 141.619 503.983 143.662C504.061 145.705 504.591 147.705 505.534 149.518C506.704 151.717 508.337 153.635 510.321 155.14C512.473 156.829 515.075 157.847 517.802 158.068H518.051L518.124 158.288C519.735 163.734 521.945 169.429 523.98 175.519L523.497 175.285L530.817 172.84L534.155 171.713L533.921 172.21C531.74 166.164 529.631 160.352 527.699 155.008V154.789L527.875 154.613C530.003 152.499 531.59 149.902 532.501 147.044C533.277 144.421 533.277 141.63 532.501 139.007C530.905 134.088 527.611 130.355 524.039 129.037C522.458 128.427 520.77 128.143 519.076 128.202C517.811 128.231 516.554 128.403 515.328 128.715C513.147 129.257 512.122 129.754 512.107 129.681Z" fill="#263238"/>
<path d="M466.855 552.396L320.616 551.723C312.171 551.676 304.089 548.28 298.147 542.28C292.204 536.279 288.885 528.165 288.92 519.72L290.472 153.12C290.49 148.936 291.331 144.796 292.949 140.937C294.567 137.079 296.93 133.577 299.902 130.632C302.874 127.687 306.398 125.357 310.271 123.774C314.144 122.192 318.291 121.388 322.475 121.409L468.7 122.083C477.145 122.126 485.228 125.518 491.173 131.516C497.119 137.514 500.441 145.626 500.41 154.071L498.858 520.657C498.841 524.842 497.999 528.983 496.382 532.844C494.764 536.704 492.402 540.208 489.43 543.155C486.458 546.102 482.935 548.435 479.062 550.021C475.188 551.607 471.04 552.414 466.855 552.396Z" fill="#455A64"/>
<path d="M468.48 134.688H440.137C439.212 134.705 438.3 134.904 437.452 135.274C436.604 135.644 435.838 136.177 435.196 136.843C434.554 137.509 434.05 138.296 433.712 139.157C433.374 140.018 433.209 140.937 433.227 141.862V147C433.244 147.924 433.079 148.843 432.741 149.703C432.403 150.563 431.899 151.348 431.257 152.013C430.615 152.678 429.848 153.21 429.001 153.578C428.153 153.947 427.241 154.144 426.317 154.159L371.065 153.91C369.196 153.86 367.423 153.071 366.136 151.715C364.849 150.359 364.152 148.547 364.199 146.678V141.539C364.247 139.673 363.552 137.863 362.268 136.508C360.984 135.152 359.214 134.361 357.348 134.307H347.378L322.563 134.19C316.661 134.155 310.985 136.46 306.779 140.601C302.572 144.741 300.178 150.38 300.12 156.282L298.656 514.113C298.643 517.041 299.206 519.943 300.314 522.653C301.422 525.364 303.053 527.829 305.114 529.909C307.175 531.989 309.625 533.643 312.325 534.776C315.025 535.909 317.922 536.499 320.85 536.512L466.782 537.185C469.712 537.199 472.616 536.635 475.328 535.526C478.04 534.418 480.507 532.785 482.588 530.723C484.67 528.661 486.324 526.209 487.458 523.507C488.592 520.805 489.182 517.907 489.196 514.977L490.66 157.146C490.695 151.227 488.378 145.537 484.219 141.325C480.06 137.114 474.399 134.727 468.48 134.688Z" fill="white"/>
<path d="M448.848 489.444L340.336 488.976C339.209 488.976 338.301 487.746 338.316 486.253L338.433 457.866C338.433 456.402 339.355 455.143 340.483 455.143L448.994 455.641C449.619 455.749 450.178 456.094 450.554 456.604C450.931 457.114 451.096 457.75 451.015 458.378L450.912 486.736C450.912 488.244 449.975 489.459 448.848 489.444Z" fill="#6AB058"/>
<path d="M372.288 471.626C371.865 471.626 371.459 471.558 371.068 471.423C370.683 471.287 370.385 471.108 370.174 470.886L370.41 470.422C370.616 470.628 370.889 470.796 371.231 470.927C371.572 471.051 371.925 471.114 372.288 471.114C372.798 471.114 373.18 471.021 373.435 470.837C373.689 470.647 373.817 470.403 373.817 470.105C373.817 469.878 373.746 469.696 373.605 469.56C373.47 469.425 373.302 469.322 373.101 469.251C372.901 469.176 372.621 469.094 372.264 469.008C371.835 468.899 371.494 468.796 371.239 468.699C370.984 468.596 370.765 468.441 370.58 468.235C370.402 468.029 370.312 467.75 370.312 467.398C370.312 467.11 370.388 466.85 370.54 466.617C370.692 466.378 370.925 466.189 371.239 466.048C371.554 465.907 371.944 465.836 372.41 465.836C372.735 465.836 373.052 465.882 373.361 465.975C373.676 466.061 373.947 466.183 374.175 466.34L373.971 466.82C373.733 466.663 373.478 466.546 373.207 466.471C372.936 466.389 372.67 466.349 372.41 466.349C371.911 466.349 371.535 466.446 371.28 466.641C371.03 466.831 370.906 467.078 370.906 467.381C370.906 467.609 370.973 467.793 371.109 467.934C371.25 468.07 371.423 468.175 371.629 468.251C371.841 468.322 372.123 468.4 372.475 468.487C372.892 468.59 373.229 468.693 373.483 468.796C373.744 468.894 373.963 469.045 374.142 469.251C374.321 469.452 374.41 469.726 374.41 470.073C374.41 470.36 374.332 470.623 374.175 470.861C374.023 471.095 373.787 471.282 373.467 471.423C373.147 471.558 372.754 471.626 372.288 471.626ZM375.721 465.885H376.323V471.577H375.721V465.885ZM382.932 465.885V471.577H382.436L378.777 466.958V471.577H378.175V465.885H378.671L382.338 470.504V465.885H382.932ZM388.798 468.731H389.376V470.902C389.11 471.135 388.796 471.314 388.432 471.439C388.069 471.563 387.687 471.626 387.286 471.626C386.717 471.626 386.204 471.501 385.749 471.252C385.294 471.002 384.936 470.658 384.676 470.219C384.416 469.775 384.286 469.279 384.286 468.731C384.286 468.184 384.416 467.69 384.676 467.251C384.936 466.807 385.294 466.46 385.749 466.21C386.204 465.961 386.719 465.836 387.294 465.836C387.728 465.836 388.126 465.907 388.489 466.048C388.853 466.183 389.159 466.387 389.408 466.658L389.034 467.04C388.584 466.595 388.012 466.373 387.318 466.373C386.858 466.373 386.44 466.476 386.066 466.682C385.698 466.883 385.408 467.164 385.196 467.528C384.985 467.885 384.879 468.287 384.879 468.731C384.879 469.176 384.985 469.577 385.196 469.935C385.408 470.292 385.698 470.574 386.066 470.78C386.435 470.986 386.85 471.089 387.31 471.089C387.896 471.089 388.392 470.943 388.798 470.65V468.731ZM395.5 471.626C394.763 471.626 394.188 471.414 393.776 470.992C393.364 470.569 393.158 469.953 393.158 469.146V465.885H393.76V469.121C393.76 469.783 393.909 470.276 394.207 470.601C394.505 470.927 394.936 471.089 395.5 471.089C396.069 471.089 396.503 470.927 396.801 470.601C397.099 470.276 397.248 469.783 397.248 469.121V465.885H397.834V469.146C397.834 469.953 397.628 470.569 397.216 470.992C396.809 471.414 396.237 471.626 395.5 471.626ZM401.777 465.885C402.504 465.885 403.073 466.059 403.485 466.406C403.897 466.752 404.103 467.229 404.103 467.837C404.103 468.444 403.897 468.921 403.485 469.268C403.073 469.609 402.504 469.78 401.777 469.78H400.248V471.577H399.647V465.885H401.777ZM401.761 469.251C402.325 469.251 402.756 469.13 403.054 468.886C403.352 468.636 403.501 468.287 403.501 467.837C403.501 467.376 403.352 467.024 403.054 466.78C402.756 466.53 402.325 466.406 401.761 466.406H400.248V469.251H401.761Z" fill="#E8E8E3"/>
<path d="M361.98 239.877L324.326 239.706L324.295 246.616L361.949 246.787L361.98 239.877Z" fill="#6AB058"/>
<path opacity="0.1" d="M361.98 239.877L324.326 239.706L324.295 246.616L361.949 246.787L361.98 239.877Z" fill="black"/>
<path d="M472.36 282.303C472.655 282.273 472.946 282.204 473.223 282.098C473.629 281.94 473.981 281.67 474.24 281.321C474.499 280.971 474.654 280.555 474.687 280.122C474.687 277.794 474.687 274.397 474.687 270.035C474.687 267.853 474.687 265.409 474.687 262.715C474.687 262.056 474.687 261.368 474.687 260.68C474.783 260.012 474.637 259.332 474.277 258.762C474.076 258.488 473.814 258.266 473.511 258.111C473.209 257.956 472.875 257.873 472.535 257.869H470.251H449.097L326.648 257.415C326.334 257.41 326.024 257.48 325.744 257.62C325.464 257.761 325.221 257.966 325.037 258.22C324.684 258.793 324.549 259.474 324.657 260.138C324.657 261.602 324.657 263.066 324.657 264.53C324.657 267.458 324.657 270.386 324.657 273.314C324.657 274.778 324.657 276.242 324.657 277.706C324.596 278.388 324.596 279.074 324.657 279.756C324.734 280.048 324.877 280.319 325.075 280.547C325.272 280.776 325.52 280.956 325.799 281.073C326.087 281.188 326.396 281.243 326.706 281.234H334.158L366.674 281.41L421.72 281.747L458.832 282.04L468.919 282.157H471.54C472.14 282.157 472.433 282.157 472.433 282.157H471.54H468.919H458.832H421.72L366.674 281.981L334.158 281.849H326.706C326.296 281.866 325.887 281.796 325.506 281.644C325.12 281.48 324.778 281.229 324.503 280.912C324.229 280.595 324.032 280.22 323.925 279.814C323.84 279.43 323.81 279.036 323.837 278.643V277.56C323.837 276.096 323.837 274.632 323.837 273.168C323.837 270.24 323.837 267.312 323.837 264.384C323.837 262.92 323.837 261.456 323.837 259.992C323.809 259.602 323.809 259.21 323.837 258.821C323.892 258.39 324.058 257.981 324.32 257.635C324.573 257.281 324.907 256.994 325.294 256.798C325.682 256.602 326.111 256.502 326.545 256.507L448.994 257.181L470.149 257.327H472.433C472.835 257.328 473.232 257.425 473.588 257.611C473.945 257.797 474.252 258.066 474.482 258.396C474.895 259.032 475.062 259.798 474.951 260.548C474.951 261.236 474.951 261.924 474.951 262.583C474.951 265.247 474.951 267.692 474.951 269.903C474.951 274.295 474.848 277.662 474.819 280.005C474.783 280.455 474.62 280.886 474.347 281.246C474.075 281.607 473.705 281.882 473.282 282.04C473.005 282.211 472.686 282.302 472.36 282.303Z" fill="#E0E0E0"/>
<path d="M404.503 264.764H335.637V271.221H404.503V264.764Z" fill="#6AB058"/>
<path opacity="0.2" d="M404.503 264.764H335.637V271.221H404.503V264.764Z" fill="white"/>
<path d="M361.723 302.915L324.07 302.744L324.038 309.654L361.692 309.825L361.723 302.915Z" fill="#6AB058"/>
<path opacity="0.1" d="M361.723 302.915L324.07 302.744L324.038 309.654L361.692 309.825L361.723 302.915Z" fill="black"/>
<path d="M471.408 345.343C471.704 345.307 471.997 345.253 472.287 345.182C472.695 345.052 473.072 344.835 473.39 344.548C473.708 344.26 473.961 343.907 474.131 343.513C474.362 342.922 474.452 342.285 474.395 341.654C474.395 340.951 474.395 340.19 474.395 339.341C474.395 337.642 474.395 335.71 474.395 333.485V324.188C474.465 323.515 474.316 322.837 473.97 322.256C473.609 321.659 473.041 321.216 472.374 321.011C471.645 320.881 470.903 320.842 470.164 320.894H449.097L327.072 320.44C326.416 320.442 325.783 320.682 325.29 321.115C324.797 321.549 324.478 322.147 324.393 322.797C324.393 324.188 324.393 325.725 324.393 327.189C324.393 330.117 324.393 333.045 324.393 335.973C324.393 337.437 324.393 338.901 324.393 340.365C324.339 341.05 324.368 341.738 324.481 342.415C324.664 343.009 325.04 343.524 325.55 343.879C326.091 344.222 326.726 344.386 327.365 344.347H329.4H333.631L366.029 344.508L420.885 344.845L457.866 345.138L467.924 345.255H470.544H471.423H470.544H467.924H457.866H420.885L366 345.197L333.602 345.079H327.233C326.442 345.126 325.656 344.916 324.993 344.479C324.327 344.018 323.841 343.34 323.617 342.561C323.486 341.817 323.447 341.06 323.5 340.307C323.5 338.843 323.5 337.379 323.5 335.915C323.5 332.987 323.5 330.059 323.5 327.131C323.5 325.667 323.5 324.203 323.5 322.739C323.607 321.902 324.015 321.132 324.649 320.574C325.282 320.017 326.097 319.709 326.941 319.708L448.965 320.382L470.032 320.543C470.816 320.495 471.604 320.549 472.374 320.704C473.135 320.952 473.777 321.474 474.175 322.168C474.554 322.813 474.718 323.561 474.644 324.305C474.644 324.993 474.644 325.667 474.644 326.34C474.644 328.99 474.644 331.42 474.644 333.66C474.644 335.9 474.644 337.789 474.644 339.516C474.644 340.351 474.644 341.127 474.644 341.844C474.697 342.499 474.591 343.157 474.336 343.762C474.146 344.166 473.871 344.524 473.53 344.812C473.189 345.1 472.79 345.311 472.36 345.431C472.04 345.457 471.718 345.427 471.408 345.343Z" fill="#E0E0E0"/>
<path d="M361.44 368.69L323.786 368.519L323.755 375.429L361.408 375.6L361.44 368.69Z" fill="#6AB058"/>
<path opacity="0.1" d="M361.44 368.69L323.786 368.519L323.755 375.429L361.408 375.6L361.44 368.69Z" fill="black"/>
<path d="M471.115 411.091C471.411 411.056 471.704 411.002 471.993 410.93C472.401 410.801 472.776 410.586 473.094 410.301C473.412 410.016 473.665 409.666 473.838 409.276C474.068 408.685 474.158 408.048 474.102 407.417C474.102 406.699 474.102 405.953 474.102 405.089C474.102 403.405 474.102 401.458 474.102 399.233V389.936C474.172 389.263 474.023 388.586 473.677 388.004C473.307 387.418 472.742 386.982 472.081 386.774C471.353 386.639 470.61 386.595 469.871 386.642H448.804L326.779 386.189C326.123 386.19 325.49 386.43 324.997 386.863C324.504 387.297 324.185 387.895 324.1 388.546C324.1 390.01 324.1 391.474 324.1 392.938C324.1 395.866 324.1 398.794 324.1 401.722C324.1 403.186 324.1 404.65 324.1 406.114C324.046 406.793 324.075 407.476 324.188 408.149C324.363 408.746 324.741 409.264 325.257 409.613C325.794 409.963 326.432 410.128 327.072 410.081H333.441L365.839 410.257L420.695 410.593L457.676 410.886L467.733 411.003H470.354C470.939 411.003 471.232 411.003 471.232 411.003C471.232 411.003 470.939 411.003 470.354 411.003H467.733H457.676H420.695L365.839 410.842L333.441 410.711H327.072C326.28 410.764 325.492 410.553 324.832 410.11C324.166 409.649 323.68 408.971 323.456 408.192C323.325 407.449 323.286 406.691 323.339 405.938C323.339 404.474 323.339 403.01 323.339 401.546C323.339 398.618 323.339 395.69 323.339 392.762C323.339 391.298 323.339 389.834 323.339 388.297C323.443 387.461 323.848 386.691 324.479 386.133C325.11 385.575 325.922 385.267 326.765 385.266L448.789 385.94L469.856 386.101C470.641 386.053 471.428 386.107 472.198 386.262C472.959 386.51 473.601 387.032 473.999 387.726C474.378 388.371 474.542 389.119 474.468 389.863C474.468 390.551 474.468 391.239 474.468 391.898C474.468 394.548 474.468 396.978 474.468 399.218C474.468 401.458 474.468 403.347 474.468 405.074C474.468 405.909 474.468 406.685 474.468 407.402C474.524 408.057 474.418 408.715 474.16 409.32C473.97 409.724 473.695 410.082 473.354 410.37C473.013 410.658 472.614 410.869 472.184 410.989C471.841 411.106 471.474 411.141 471.115 411.091Z" fill="#E0E0E0"/>
<path d="M403.033 329.63L334.167 329.317L334.138 335.773L403.004 336.086L403.033 329.63Z" fill="#6AB058"/>
<path opacity="0.2" d="M403.033 329.63L334.167 329.317L334.138 335.773L403.004 336.086L403.033 329.63Z" fill="white"/>
<path d="M340.395 399.145C340.352 399.734 340.136 400.297 339.776 400.765C339.416 401.233 338.926 401.584 338.368 401.776C337.809 401.968 337.207 401.992 336.635 401.845C336.063 401.698 335.547 401.386 335.151 400.948C334.755 400.51 334.496 399.966 334.406 399.382C334.316 398.798 334.4 398.201 334.647 397.665C334.893 397.128 335.292 396.676 335.793 396.364C336.295 396.052 336.876 395.894 337.467 395.909C338.282 395.955 339.047 396.32 339.595 396.926C340.143 397.531 340.431 398.329 340.395 399.145Z" fill="#6AB058"/>
<path d="M349.72 399.189C349.749 399.602 349.693 400.016 349.555 400.406C349.417 400.796 349.2 401.153 348.917 401.456C348.635 401.758 348.294 402 347.914 402.165C347.535 402.33 347.126 402.415 346.712 402.415C346.298 402.415 345.889 402.33 345.509 402.165C345.13 402 344.789 401.758 344.506 401.456C344.224 401.153 344.007 400.796 343.869 400.406C343.731 400.016 343.675 399.602 343.703 399.189C343.675 398.776 343.731 398.362 343.869 397.972C344.007 397.582 344.224 397.225 344.506 396.922C344.789 396.619 345.13 396.378 345.509 396.213C345.889 396.048 346.298 395.963 346.712 395.963C347.126 395.963 347.535 396.048 347.914 396.213C348.294 396.378 348.635 396.619 348.917 396.922C349.2 397.225 349.417 397.582 349.555 397.972C349.693 398.362 349.749 398.776 349.72 399.189Z" fill="#6AB058"/>
<path d="M359.061 399.233C359.017 399.822 358.802 400.385 358.442 400.853C358.082 401.32 357.592 401.672 357.034 401.864C356.475 402.056 355.873 402.08 355.301 401.933C354.729 401.785 354.213 401.474 353.817 401.036C353.421 400.598 353.162 400.053 353.072 399.47C352.982 398.886 353.066 398.289 353.313 397.753C353.559 397.216 353.958 396.764 354.459 396.452C354.961 396.14 355.542 395.982 356.133 395.997C356.947 396.046 357.71 396.413 358.257 397.018C358.804 397.622 359.093 398.418 359.061 399.233Z" fill="#6AB058"/>
<path d="M368.386 399.277C368.343 399.866 368.128 400.429 367.768 400.897C367.407 401.364 366.918 401.716 366.359 401.908C365.801 402.1 365.198 402.124 364.627 401.977C364.055 401.829 363.539 401.517 363.143 401.08C362.746 400.642 362.487 400.097 362.398 399.514C362.308 398.93 362.392 398.333 362.638 397.796C362.885 397.26 363.284 396.808 363.785 396.496C364.286 396.184 364.868 396.026 365.458 396.041C366.273 396.09 367.035 396.457 367.583 397.061C368.13 397.666 368.419 398.462 368.386 399.277Z" fill="#6AB058"/>
<path d="M377.712 399.306C377.672 399.896 377.459 400.461 377.1 400.93C376.741 401.4 376.252 401.754 375.694 401.948C375.136 402.143 374.533 402.168 373.96 402.023C373.387 401.877 372.869 401.566 372.472 401.129C372.074 400.691 371.814 400.147 371.723 399.562C371.633 398.978 371.716 398.38 371.962 397.843C372.208 397.306 372.607 396.853 373.109 396.54C373.611 396.228 374.193 396.069 374.784 396.085C375.596 396.134 376.356 396.499 376.903 397.1C377.45 397.702 377.74 398.493 377.712 399.306Z" fill="#6AB058"/>
<path d="M387.053 399.35C387.013 399.937 386.802 400.499 386.447 400.967C386.091 401.436 385.607 401.79 385.052 401.987C384.498 402.184 383.899 402.214 383.327 402.074C382.756 401.935 382.238 401.631 381.837 401.201C381.436 400.771 381.17 400.233 381.071 399.653C380.972 399.073 381.044 398.477 381.28 397.938C381.515 397.399 381.903 396.941 382.395 396.62C382.888 396.298 383.463 396.128 384.051 396.129C384.876 396.16 385.655 396.516 386.217 397.119C386.78 397.723 387.08 398.525 387.053 399.35Z" fill="#6AB058"/>
<path d="M396.378 399.394C396.407 399.806 396.351 400.221 396.212 400.611C396.074 401.001 395.857 401.358 395.575 401.661C395.293 401.963 394.951 402.205 394.572 402.369C394.193 402.534 393.783 402.62 393.37 402.62C392.956 402.62 392.547 402.534 392.167 402.369C391.788 402.205 391.446 401.963 391.164 401.661C390.882 401.358 390.665 401.001 390.527 400.611C390.389 400.221 390.332 399.806 390.361 399.394C390.332 398.981 390.389 398.567 390.527 398.177C390.665 397.787 390.882 397.429 391.164 397.127C391.446 396.824 391.788 396.583 392.167 396.418C392.547 396.253 392.956 396.168 393.37 396.168C393.783 396.168 394.193 396.253 394.572 396.418C394.951 396.583 395.293 396.824 395.575 397.127C395.857 397.429 396.074 397.787 396.212 398.177C396.351 398.567 396.407 398.981 396.378 399.394Z" fill="#6AB058"/>
<path d="M405.704 399.438C405.664 400.024 405.453 400.587 405.098 401.055C404.742 401.524 404.258 401.878 403.704 402.075C403.149 402.272 402.55 402.302 401.978 402.162C401.407 402.023 400.889 401.719 400.488 401.289C400.087 400.858 399.821 400.32 399.722 399.741C399.623 399.161 399.696 398.565 399.931 398.026C400.166 397.487 400.554 397.029 401.046 396.707C401.539 396.386 402.114 396.215 402.702 396.217C403.527 396.247 404.306 396.604 404.869 397.207C405.431 397.811 405.731 398.613 405.704 399.438Z" fill="#6AB058"/>
<path d="M415.029 399.482C414.989 400.071 414.776 400.636 414.417 401.106C414.059 401.576 413.57 401.93 413.011 402.124C412.453 402.318 411.85 402.344 411.277 402.198C410.704 402.053 410.187 401.742 409.789 401.304C409.392 400.867 409.131 400.322 409.041 399.738C408.95 399.154 409.033 398.556 409.279 398.019C409.526 397.481 409.925 397.028 410.426 396.716C410.928 396.403 411.511 396.245 412.101 396.261C412.913 396.31 413.673 396.674 414.22 397.276C414.767 397.877 415.058 398.669 415.029 399.482Z" fill="#6AB058"/>
<g opacity="0.2">
<path opacity="0.2" d="M340.395 399.145C340.352 399.734 340.136 400.297 339.776 400.765C339.416 401.233 338.926 401.584 338.368 401.776C337.809 401.968 337.207 401.992 336.635 401.845C336.063 401.698 335.547 401.386 335.151 400.948C334.755 400.51 334.496 399.966 334.406 399.382C334.316 398.798 334.4 398.201 334.647 397.665C334.893 397.128 335.292 396.676 335.793 396.364C336.295 396.052 336.876 395.894 337.467 395.909C338.282 395.955 339.047 396.32 339.595 396.926C340.143 397.531 340.431 398.329 340.395 399.145Z" fill="white"/>
<path opacity="0.2" d="M349.72 399.188C349.749 399.601 349.693 400.015 349.555 400.405C349.416 400.795 349.2 401.152 348.917 401.455C348.635 401.757 348.294 401.999 347.914 402.164C347.535 402.329 347.126 402.414 346.712 402.414C346.298 402.414 345.889 402.329 345.509 402.164C345.13 401.999 344.789 401.757 344.506 401.455C344.224 401.152 344.007 400.795 343.869 400.405C343.731 400.015 343.675 399.601 343.703 399.188C343.675 398.775 343.731 398.361 343.869 397.971C344.007 397.581 344.224 397.224 344.506 396.921C344.789 396.618 345.13 396.377 345.509 396.212C345.889 396.047 346.298 395.962 346.712 395.962C347.126 395.962 347.535 396.047 347.914 396.212C348.294 396.377 348.635 396.618 348.917 396.921C349.2 397.224 349.416 397.581 349.555 397.971C349.693 398.361 349.749 398.775 349.72 399.188Z" fill="white"/>
<path opacity="0.2" d="M359.061 399.232C359.017 399.821 358.802 400.384 358.442 400.852C358.082 401.32 357.592 401.671 357.034 401.863C356.475 402.055 355.873 402.079 355.301 401.932C354.729 401.785 354.213 401.473 353.817 401.035C353.421 400.597 353.162 400.053 353.072 399.469C352.982 398.885 353.066 398.288 353.313 397.752C353.559 397.215 353.958 396.763 354.459 396.451C354.961 396.139 355.542 395.981 356.133 395.996C356.947 396.046 357.71 396.412 358.257 397.017C358.804 397.622 359.093 398.417 359.061 399.232Z" fill="white"/>
<path opacity="0.2" d="M368.386 399.277C368.343 399.866 368.128 400.429 367.768 400.897C367.407 401.364 366.918 401.716 366.359 401.908C365.801 402.1 365.198 402.124 364.627 401.977C364.055 401.829 363.539 401.517 363.143 401.08C362.746 400.642 362.487 400.097 362.398 399.514C362.308 398.93 362.392 398.333 362.638 397.796C362.885 397.26 363.284 396.808 363.785 396.496C364.286 396.184 364.868 396.026 365.458 396.041C366.273 396.09 367.035 396.457 367.583 397.061C368.13 397.666 368.419 398.462 368.386 399.277Z" fill="white"/>
<path opacity="0.2" d="M377.712 399.305C377.672 399.895 377.459 400.46 377.1 400.93C376.741 401.4 376.252 401.754 375.694 401.948C375.136 402.142 374.533 402.168 373.96 402.022C373.387 401.876 372.869 401.565 372.472 401.128C372.074 400.691 371.814 400.146 371.723 399.562C371.633 398.978 371.716 398.38 371.962 397.842C372.208 397.305 372.607 396.852 373.109 396.539C373.611 396.227 374.193 396.069 374.784 396.085C375.596 396.134 376.356 396.498 376.903 397.1C377.45 397.701 377.74 398.493 377.712 399.305Z" fill="white"/>
<path opacity="0.2" d="M387.052 399.349C387.012 399.936 386.802 400.498 386.446 400.967C386.091 401.435 385.606 401.79 385.052 401.986C384.498 402.183 383.898 402.213 383.327 402.074C382.756 401.934 382.238 401.63 381.837 401.2C381.436 400.77 381.17 400.232 381.071 399.652C380.972 399.073 381.044 398.477 381.28 397.938C381.515 397.399 381.903 396.94 382.395 396.619C382.887 396.297 383.463 396.127 384.051 396.128C384.876 396.159 385.655 396.515 386.217 397.119C386.78 397.722 387.08 398.524 387.052 399.349Z" fill="white"/>
<path opacity="0.2" d="M396.378 399.393C396.407 399.806 396.351 400.22 396.212 400.61C396.074 401 395.857 401.357 395.575 401.66C395.293 401.962 394.951 402.204 394.572 402.369C394.193 402.534 393.783 402.619 393.37 402.619C392.956 402.619 392.547 402.534 392.167 402.369C391.788 402.204 391.446 401.962 391.164 401.66C390.882 401.357 390.665 401 390.527 400.61C390.389 400.22 390.332 399.806 390.361 399.393C390.332 398.98 390.389 398.566 390.527 398.176C390.665 397.786 390.882 397.429 391.164 397.126C391.446 396.823 391.788 396.582 392.167 396.417C392.547 396.252 392.956 396.167 393.37 396.167C393.783 396.167 394.193 396.252 394.572 396.417C394.951 396.582 395.293 396.823 395.575 397.126C395.857 397.429 396.074 397.786 396.212 398.176C396.351 398.566 396.407 398.98 396.378 399.393Z" fill="white"/>
<path opacity="0.2" d="M405.704 399.437C405.664 400.023 405.453 400.586 405.098 401.054C404.742 401.523 404.258 401.877 403.704 402.074C403.149 402.271 402.55 402.301 401.978 402.161C401.407 402.022 400.889 401.718 400.488 401.288C400.087 400.857 399.821 400.319 399.722 399.74C399.623 399.16 399.696 398.564 399.931 398.025C400.166 397.486 400.554 397.028 401.046 396.706C401.539 396.385 402.114 396.214 402.702 396.216C403.527 396.246 404.306 396.603 404.868 397.206C405.431 397.81 405.731 398.612 405.704 399.437Z" fill="white"/>
<path opacity="0.2" d="M415.029 399.481C414.989 400.07 414.776 400.635 414.417 401.105C414.059 401.575 413.57 401.929 413.011 402.123C412.453 402.317 411.85 402.343 411.277 402.197C410.704 402.051 410.187 401.741 409.789 401.303C409.392 400.866 409.131 400.321 409.041 399.737C408.95 399.153 409.033 398.555 409.279 398.018C409.526 397.48 409.925 397.027 410.426 396.715C410.928 396.402 411.511 396.244 412.101 396.26C412.913 396.309 413.673 396.673 414.22 397.275C414.767 397.876 415.058 398.668 415.029 399.481Z" fill="white"/>
</g>
<path d="M401.78 188.139C402.797 187.691 403.66 186.954 404.261 186.019C404.863 185.085 405.176 183.994 405.162 182.883C405.2 182.161 405.09 181.438 404.84 180.759C404.59 180.081 404.204 179.46 403.706 178.936C403.208 178.411 402.609 177.993 401.944 177.707C401.279 177.422 400.564 177.275 399.84 177.275C399.117 177.275 398.401 177.422 397.737 177.707C397.072 177.993 396.473 178.411 395.975 178.936C395.477 179.46 395.091 180.081 394.841 180.759C394.59 181.438 394.481 182.161 394.519 182.883C394.496 184.005 394.807 185.109 395.412 186.055C396.016 187.001 396.887 187.746 397.915 188.197C389.717 189.427 390.083 198.328 390.083 198.328L409.466 198.416C409.466 198.416 409.92 189.354 401.78 188.139Z" fill="#6AB058"/>
<path opacity="0.1" d="M401.78 188.139C402.797 187.691 403.66 186.954 404.261 186.019C404.863 185.085 405.176 183.994 405.162 182.883C405.2 182.161 405.09 181.438 404.84 180.759C404.59 180.081 404.204 179.46 403.706 178.936C403.208 178.411 402.609 177.993 401.944 177.707C401.279 177.422 400.564 177.275 399.84 177.275C399.117 177.275 398.401 177.422 397.737 177.707C397.072 177.993 396.473 178.411 395.975 178.936C395.477 179.46 395.091 180.081 394.841 180.759C394.59 181.438 394.481 182.161 394.519 182.883C394.496 184.005 394.807 185.109 395.412 186.055C396.016 187.001 396.887 187.746 397.915 188.197C389.717 189.427 390.083 198.328 390.083 198.328L409.466 198.416C409.466 198.416 409.92 189.354 401.78 188.139Z" fill="black"/>
<path d="M433.278 204.157L364.192 203.843L364.155 212.1L433.24 212.414L433.278 204.157Z" fill="#6AB058"/>
<path opacity="0.2" d="M433.278 204.157L364.192 203.843L364.155 212.1L433.24 212.414L433.278 204.157Z" fill="white"/>
<path d="M179.296 246.948H178.608L176.617 247.094C175.539 247.159 174.468 247.301 173.411 247.519C172.726 247.615 172.047 247.747 171.376 247.914L169.107 248.543C165.244 249.728 161.6 251.533 158.317 253.887C153.979 257.036 150.357 261.067 147.688 265.716C146.12 268.396 144.872 271.251 143.97 274.222C143.022 277.451 142.476 280.785 142.345 284.148C142.257 285.914 142.287 287.685 142.433 289.447C142.433 290.341 142.681 291.234 142.799 292.141C142.897 293.056 143.068 293.962 143.311 294.85C144.627 300.724 147.299 306.21 151.111 310.869C154.924 315.528 159.773 319.232 165.271 321.685C169.25 323.402 173.515 324.36 177.847 324.51C182.32 324.756 186.798 324.114 191.023 322.622L192.311 322.139H192.487L192.633 322.226L211.094 331.596L210.553 332.065C208.576 325.945 206.673 320.016 204.828 314.321V314.101L204.989 313.94C209.468 309.43 212.792 303.905 214.681 297.836C216.392 292.288 216.891 286.436 216.145 280.678C215.481 275.561 213.836 270.62 211.299 266.126C209.112 262.266 206.291 258.801 202.954 255.878C200.201 253.564 197.154 251.624 193.892 250.11C191.424 249.045 188.854 248.236 186.221 247.694L183.293 247.211L181.17 247.05L179.882 246.962H179.442C179.588 246.946 179.736 246.946 179.882 246.962H181.185L183.307 247.05L186.235 247.475C188.901 247.977 191.507 248.757 194.009 249.802C197.327 251.299 200.429 253.234 203.233 255.556C206.631 258.466 209.512 261.931 211.753 265.804C214.362 270.346 216.058 275.354 216.745 280.546C217.553 286.394 217.089 292.346 215.384 297.997C213.483 304.193 210.107 309.834 205.546 314.438L205.633 314.057C207.478 319.752 209.396 325.681 211.387 331.786L211.665 332.679L210.831 332.255L192.37 322.9H192.692L191.374 323.383C187.068 324.898 182.507 325.555 177.949 325.315C173.525 325.147 169.17 324.154 165.11 322.387C157.365 319.071 150.921 313.306 146.766 305.976C144.854 302.591 143.457 298.94 142.623 295.142C142.394 294.232 142.223 293.308 142.11 292.375C141.993 291.453 141.803 290.545 141.759 289.638C141.363 284.429 141.913 279.191 143.384 274.178C144.309 271.166 145.592 268.276 147.205 265.57C149.937 260.878 153.635 256.821 158.053 253.667C161.391 251.307 165.096 249.517 169.019 248.368L171.317 247.782C171.994 247.625 172.678 247.503 173.367 247.416C174.435 247.218 175.517 247.101 176.602 247.065L178.608 246.991C178.836 246.961 179.066 246.946 179.296 246.948Z" fill="#6AB058"/>
<path d="M187.641 281.088H184.933L179.077 272.86V267.458C179.077 267.458 174.89 267.195 175.387 274.266C175.885 281.337 175.387 279.536 175.387 279.536C175.387 279.536 166.501 279.536 165.769 280.341C165.037 281.147 164.993 289.726 164.89 294.513C164.834 295.667 165.165 296.807 165.831 297.751C166.497 298.695 167.459 299.39 168.565 299.725C168.875 299.811 169.195 299.855 169.517 299.856C171.742 299.856 183.059 298.056 183.059 298.056H187.729L187.641 281.088Z" fill="#6AB058"/>
<path d="M195.386 279.639L193.717 298.144H189.09V280.019L195.386 279.639Z" fill="#6AB058"/>
<path d="M250.564 656.37V643.853L228.121 643.692L227.93 662.621L229.321 662.724C235.514 663.119 260.826 663.704 264.984 662.416C269.61 660.981 250.564 656.37 250.564 656.37Z" fill="#6AB058"/>
<path d="M265.511 661.245C265.511 661.45 257.108 661.625 246.757 661.625C236.407 661.625 228.003 661.45 228.003 661.245C228.003 661.04 236.407 660.864 246.757 660.864C257.108 660.864 265.511 661.04 265.511 661.245Z" fill="#263238"/>
<path d="M250.959 658.932C250.769 658.829 250.959 658.171 251.413 657.468C251.867 656.765 252.482 656.472 252.628 656.619C252.774 656.765 252.467 657.321 252.028 657.922C251.589 658.522 251.149 659.034 250.959 658.932Z" fill="#263238"/>
<path d="M252.394 659.752C252.189 659.752 252.291 658.932 252.73 658.156C253.17 657.38 253.755 656.911 253.916 657.029C254.077 657.146 253.814 657.804 253.404 658.493C252.994 659.181 252.584 659.825 252.394 659.752Z" fill="#263238"/>
<path d="M234.767 661.186C234.679 661.186 234.342 660.923 233.859 660.366C233.27 659.651 232.613 658.994 231.897 658.405C231.194 657.843 230.357 657.474 229.467 657.336C228.779 657.248 228.34 657.336 228.296 657.248C228.252 657.16 228.677 656.853 229.482 656.794C230.545 656.772 231.581 657.124 232.41 657.79C233.186 658.423 233.841 659.192 234.342 660.059C234.679 660.703 234.855 661.128 234.767 661.186Z" fill="#263238"/>
<path d="M251.032 656.575C251.135 656.75 250.754 657.19 250.11 657.424C249.466 657.658 248.895 657.57 248.865 657.424C248.836 657.277 249.29 656.97 249.846 656.765C250.403 656.56 250.915 656.399 251.032 656.575Z" fill="#263238"/>
<path d="M250.681 655.36C250.681 655.579 250.095 655.755 249.334 655.77C248.573 655.784 247.972 655.608 247.987 655.404C248.002 655.199 248.602 655.008 249.334 654.994C250.066 654.979 250.652 655.155 250.681 655.36Z" fill="#263238"/>
<path d="M305.83 656.37V643.853L283.387 643.692L283.196 662.431L284.587 662.533C290.78 662.929 316.107 663.704 320.25 662.416C324.876 660.981 305.83 656.37 305.83 656.37Z" fill="#6AB058"/>
<path d="M320.777 661.274C320.777 661.479 312.389 661.655 302.023 661.655C291.658 661.655 283.284 661.479 283.284 661.274C283.284 661.069 291.673 660.893 302.023 660.893C312.374 660.893 320.777 661.069 320.777 661.274Z" fill="#263238"/>
<path d="M306.225 658.932C306.049 658.829 306.225 658.171 306.679 657.468C307.133 656.765 307.748 656.472 307.894 656.619C308.04 656.765 307.733 657.321 307.294 657.922C306.855 658.522 306.415 659.034 306.225 658.932Z" fill="#263238"/>
<path d="M307.66 659.752C307.469 659.752 307.557 658.932 308.011 658.156C308.465 657.38 309.036 656.911 309.197 657.029C309.358 657.146 309.08 657.804 308.67 658.493C308.26 659.181 307.865 659.825 307.66 659.752Z" fill="#263238"/>
<path d="M290.033 661.186C289.945 661.186 289.623 660.923 289.125 660.366C288.536 659.651 287.879 658.994 287.164 658.405C286.46 657.843 285.623 657.474 284.733 657.336C284.06 657.248 283.606 657.336 283.562 657.248C283.518 657.16 283.943 656.853 284.748 656.794C285.811 656.772 286.847 657.124 287.676 657.79C288.457 658.419 289.112 659.188 289.609 660.059C289.945 660.703 290.121 661.128 290.033 661.186Z" fill="#263238"/>
<path d="M306.298 656.575C306.401 656.75 306.02 657.19 305.376 657.424C304.732 657.658 304.161 657.57 304.131 657.424C304.102 657.277 304.556 656.97 305.112 656.765C305.669 656.56 306.181 656.399 306.298 656.575Z" fill="#263238"/>
<path d="M305.976 655.36C305.976 655.579 305.39 655.755 304.629 655.77C303.868 655.784 303.282 655.608 303.297 655.404C303.312 655.199 303.897 655.008 304.629 654.994C305.361 654.979 305.976 655.155 305.976 655.36Z" fill="#263238"/>
<path d="M388.516 284.66C387.931 284.06 386.481 284.353 386.481 284.353C386.627 283.51 386.627 282.648 386.481 281.805C386.218 280.986 384.373 281.147 384.373 281.147C384.288 280.456 384.288 279.758 384.373 279.068C384.388 278.915 384.355 278.761 384.279 278.627C384.203 278.494 384.088 278.387 383.949 278.321C383.076 277.965 382.139 277.796 381.196 277.823C380.069 277.018 384.637 270.62 386.335 268.571C388.033 266.521 387.726 264.925 386.218 264.925C385.178 264.925 379.85 271.074 378.21 273.139C376.57 275.203 372.222 280.942 372.076 276.359C371.929 271.777 370.085 268.322 368.928 267.736C367.772 267.151 366.542 268.527 367.171 269.801C367.724 271.248 368.069 272.766 368.196 274.31C368.355 275.54 368.301 276.788 368.035 277.999C367.55 280.253 366.889 282.465 366.059 284.616H365.942C365.942 284.616 333.997 315.258 331.684 317.439C329.62 319.401 288.101 315.111 279.77 314.233C276.94 313.819 274.081 313.623 271.221 313.647C267.605 313.808 266.96 314.321 263.359 314.365C254.264 314.466 245.19 315.264 236.216 316.751C232.153 317.442 228.358 319.235 225.244 321.936C222.131 324.636 219.819 328.14 218.561 332.065C210.172 358.27 191.169 420.3 187.817 455.143C185.283 459.737 182.996 464.463 180.965 469.3C178.608 475.712 179.179 475.932 179.97 476.078C182.107 476.473 184.537 464.966 185.445 467.748C186.353 470.53 180.833 481.466 183.073 481.788C186.001 482.198 188.329 470.076 188.607 469.11C188.885 468.143 190.335 468.451 190.071 469.358C189.647 470.647 185.533 484.306 188.402 484.745C189.983 484.979 190.159 482.095 190.159 482.095C190.159 482.095 193.087 469.022 194.419 469.285C195.751 469.549 194.331 477.264 193.658 479.841C192.985 482.417 193.921 483.72 195.298 483.091C196.235 482.652 198.475 474.819 199.089 472.272C199.704 469.724 201.241 462.668 203.306 466.753C205.37 470.837 208.503 473.209 209.791 473.267C210.082 473.234 210.355 473.114 210.577 472.924C210.799 472.734 210.958 472.481 211.036 472.199C211.113 471.918 211.104 471.619 211.01 471.342C210.916 471.066 210.741 470.823 210.509 470.647C209.4 469.565 208.449 468.333 207.683 466.987C207 465.938 206.505 464.779 206.219 463.561C205.629 461.132 205.286 458.651 205.194 456.153L204.96 454.689C208.239 438.453 217.682 390.8 231.312 360.364L236.905 371.871L239.335 380.391L224.431 417.181L287.998 416.347L278.511 379.835L290.033 341.771C302.492 342.049 334.48 342.517 339.809 340.102C346.514 337.174 381.196 293.371 381.196 293.371C383.457 291.614 385.622 289.738 387.682 287.749C387.682 287.749 389.79 285.978 388.516 284.66Z" fill="#FFBE9D"/>
<path d="M221.635 389.995C223.48 383.7 232.952 352.575 232.952 352.575C232.952 352.575 237.607 377.946 236.378 381.006C235.246 383.625 233.91 386.151 232.381 388.56C221.635 404.913 223.041 413.097 223.041 413.097L287.969 411.121C288.115 402.044 282.742 380.933 281.63 377.566C280.517 374.198 284.221 363.174 284.221 363.174C284.221 363.174 291.541 355.723 291.278 351.887C291.139 348.442 290.712 345.014 290.004 341.639L329.532 343.103L328.287 316.312L271.514 310.631C269.537 316.209 251.662 313.472 251.662 313.472C232.366 314.116 231.166 317.659 223.143 323.895C215.12 330.132 201.842 383.656 201.842 383.656L221.635 389.995Z" fill="#6AB058"/>
<path d="M260.021 383.656C258.896 383.857 257.75 383.916 256.61 383.832C254.487 383.832 251.574 383.685 248.368 383.363C245.161 383.041 242.263 382.587 240.199 382.177C239.06 382.031 237.944 381.745 236.875 381.328C238.02 381.329 239.162 381.436 240.286 381.65C242.365 381.914 245.249 382.28 248.441 382.602C251.632 382.924 254.531 383.143 256.625 383.29C257.766 383.304 258.903 383.427 260.021 383.656Z" fill="#263238"/>
<path d="M264.472 378.137C263.346 378.688 262.156 379.096 260.929 379.352C255.088 380.886 249.062 381.601 243.024 381.474C241.775 381.515 240.525 381.397 239.305 381.123C240.538 380.967 241.781 380.904 243.024 380.933C245.322 380.86 248.485 380.699 251.969 380.289C255.453 379.879 258.557 379.293 260.753 378.825C261.973 378.499 263.216 378.269 264.472 378.137Z" fill="#263238"/>
<path d="M286.315 353.512C286.285 354.628 286.133 355.738 285.861 356.821C285.48 358.856 284.894 361.637 284.148 364.682C283.401 367.728 282.684 370.538 282.04 372.442C281.781 373.531 281.397 374.587 280.898 375.589C280.979 374.476 281.186 373.376 281.513 372.31C282.069 370.026 282.698 367.391 283.401 364.507C284.104 361.623 284.777 358.987 285.334 356.704C285.532 355.604 285.861 354.533 286.315 353.512Z" fill="#263238"/>
<path d="M222.323 386.262C218.936 385.739 215.594 384.961 212.324 383.934C208.983 383.153 205.704 382.125 202.515 380.86C205.9 381.391 209.242 382.169 212.514 383.187C215.856 383.966 219.135 384.993 222.323 386.262Z" fill="#263238"/>
<path d="M290.707 341.317C290.154 341.412 289.59 341.412 289.038 341.317C287.508 341.16 286.007 340.801 284.572 340.248C282.178 339.348 279.997 337.957 278.172 336.165C276.346 334.372 274.916 332.217 273.973 329.839C272.931 327.223 272.485 324.407 272.67 321.597C272.735 319.279 273.429 317.022 274.676 315.068C275.553 313.751 276.863 312.782 278.38 312.33C278.785 312.218 279.204 312.164 279.624 312.169C279.917 312.169 280.063 312.169 280.063 312.169C280.063 312.169 279.448 312.169 278.468 312.564C277.076 313.078 275.897 314.041 275.115 315.302C273.124 318.435 272.568 324.159 274.69 329.503C275.678 332.022 277.225 334.285 279.214 336.12C280.844 337.621 282.721 338.83 284.763 339.692C286.679 340.449 288.672 340.994 290.707 341.317Z" fill="#263238"/>
<path d="M324.832 342.576C324.466 338.087 324.349 333.58 324.481 329.078C324.366 324.579 324.503 320.078 324.891 315.594C325.257 320.079 325.375 324.58 325.242 329.078C325.365 333.581 325.229 338.088 324.832 342.576Z" fill="#263238"/>
<path d="M271.133 312.271C271.294 309.006 271.631 305.317 271.631 305.317C271.631 305.317 279.712 304.424 280.195 296.079C280.678 287.735 280.195 268.483 280.195 268.483L265.555 260.987L249.305 273.768L251.808 315.492L266.712 316.444C267.851 316.475 268.956 316.054 269.785 315.271C270.614 314.489 271.098 313.41 271.133 312.271Z" fill="#FFBE9D"/>
<path d="M272.582 289.477C272.582 289.477 272.582 289.638 272.45 289.828C272.342 289.966 272.201 290.076 272.04 290.147C271.879 290.218 271.704 290.25 271.528 290.238C270.591 290.238 269.683 289.155 269.361 287.896C269.208 287.285 269.208 286.647 269.361 286.036C269.391 285.77 269.488 285.515 269.641 285.295C269.794 285.076 270 284.897 270.24 284.777C270.437 284.696 270.658 284.696 270.855 284.777C271.001 284.85 271.119 284.968 271.191 285.114C271.294 285.363 271.191 285.524 271.191 285.509C271.191 285.495 271.191 285.363 271.045 285.217C270.968 285.112 270.856 285.039 270.729 285.012C270.602 284.985 270.469 285.005 270.357 285.07C270.177 285.179 270.028 285.331 269.923 285.513C269.818 285.694 269.761 285.9 269.757 286.11C269.633 286.654 269.633 287.219 269.757 287.764C270.049 288.906 270.84 289.828 271.543 289.916C271.68 289.935 271.82 289.925 271.954 289.887C272.087 289.849 272.211 289.784 272.319 289.696C272.494 289.579 272.553 289.462 272.582 289.477Z" fill="#EB996E"/>
<path d="M285.216 263.974C284.089 260.138 280.005 258.235 276.286 257.181C270.62 255.57 264.501 254.868 258.967 256.903C253.433 258.938 246.786 262.51 246.786 268.615C243.522 268.351 241.648 271.206 240.359 274.749C239.536 276.907 239.042 279.178 238.895 281.483C238.486 289.477 236.246 300.515 231.063 306.371C228.135 309.636 224.08 311.891 222.411 315.961C220.947 319.489 221.708 323.676 220.347 327.248C219.131 330.396 216.452 332.635 214.491 335.373C212.492 338.479 211.316 342.042 211.072 345.727C210.829 349.412 211.527 353.099 213.1 356.44C214.684 359.696 216.915 362.595 219.656 364.961C222.397 367.327 225.59 369.11 229.043 370.202C235.881 372.282 243.173 372.353 250.051 370.407C255.213 369.172 260.028 366.785 264.135 363.423C268.337 359.992 271.223 355.213 272.304 349.896C273.343 343.923 271.674 337.847 270.43 331.903C266.536 313.12 267.648 312.139 272.567 294.703C272.685 294.396 272.743 294.074 272.831 293.766C272.919 293.459 272.963 293.312 273.021 293.078C273.161 292.389 273.235 291.688 273.241 290.985C272.522 291.252 271.743 291.308 270.993 291.148C270.244 290.987 269.556 290.615 269.01 290.077C268.463 289.503 268.082 288.792 267.906 288.018C267.731 287.245 267.768 286.439 268.014 285.685C268.36 284.861 268.875 284.118 269.525 283.505C270.176 282.892 270.948 282.423 271.792 282.127C273.417 281.454 275.159 281.103 276.755 280.356C280.136 278.746 282.479 275.408 284.075 271.909C285.386 269.484 285.791 266.67 285.216 263.974Z" fill="#263238"/>
<path d="M273.168 289.872C273.477 290.329 273.733 290.82 273.929 291.336C274.368 292.258 274.954 293.561 275.598 295.069L275.715 295.347H275.408L273.944 295.479C272.934 295.479 272.084 295.669 271.089 295.655C271.002 295.635 270.922 295.594 270.855 295.535C270.789 295.476 270.738 295.402 270.708 295.318C270.665 295.185 270.665 295.041 270.708 294.908C270.742 294.711 270.786 294.515 270.84 294.323L271.103 293.283C271.236 292.59 271.442 291.912 271.718 291.263C271.691 291.97 271.588 292.672 271.411 293.356L271.206 294.396C271.133 294.747 271.001 295.289 271.206 295.245C271.938 295.245 272.977 295.084 273.944 295.025L275.408 294.894L275.217 295.216C274.588 293.752 274.061 292.375 273.753 291.424C273.484 290.938 273.286 290.415 273.168 289.872Z" fill="#6AB058"/>
<path d="M223.041 413.097L287.969 411.121L316.224 521.418L311.027 647.937H276.696L280.898 524.112L255.79 447.325L259.655 652.842L224.958 653.354L221.313 460.179C221.152 454.806 219.395 442.699 220.054 437.37L223.041 413.097Z" fill="#263238"/>
<path d="M264.428 448.892C263.365 448.959 262.298 448.895 261.251 448.701C259.289 448.467 256.61 448.057 253.667 447.472C250.725 446.886 248.089 446.213 246.186 445.671C245.169 445.447 244.185 445.093 243.258 444.617C243.258 444.397 248.031 445.539 253.887 446.725C259.743 447.911 264.457 448.672 264.428 448.892Z" fill="#455A64"/>
<path d="M310.676 640.998C310.676 641.203 302.902 641.378 293.313 641.378C283.723 641.378 275.935 641.203 275.935 640.998C275.935 640.793 283.709 640.617 293.313 640.617C302.916 640.617 310.676 640.778 310.676 640.998Z" fill="#455A64"/>
<path d="M259.348 647.498C259.348 647.717 251.794 647.879 242.483 647.879C233.171 647.879 225.632 647.717 225.632 647.498C225.632 647.278 233.186 647.117 242.483 647.117C251.779 647.117 259.348 647.293 259.348 647.498Z" fill="#455A64"/>
<path d="M254.868 646.971C254.663 646.971 253.755 602.07 252.833 546.687C251.911 491.304 251.369 446.374 251.559 446.374C251.749 446.374 252.686 491.26 253.594 546.672C254.502 602.085 255.087 646.971 254.868 646.971Z" fill="#455A64"/>
<path d="M306.064 640.998C306.048 640.798 306.048 640.597 306.064 640.397V638.641C306.064 637.06 306.181 634.79 306.269 631.906C306.474 626.05 306.767 617.544 307.133 607.121C307.923 586.156 309.036 557.257 310.251 525.356C310.251 525.049 310.251 524.756 310.251 524.493V524.595C302.565 493.851 295.611 465.947 290.56 445.759L284.704 421.881C284.031 419.085 283.518 416.903 283.152 415.381C282.977 414.663 282.859 414.107 282.757 413.683C282.7 413.492 282.666 413.295 282.655 413.097C282.731 413.281 282.789 413.473 282.83 413.668C282.947 414.078 283.094 414.634 283.299 415.337C283.694 416.801 284.265 419.026 284.997 421.808C286.461 427.459 288.525 435.599 291.102 445.627C296.197 465.801 303.224 493.632 311.012 524.419V524.522C311.012 524.785 311.012 525.093 311.012 525.386C309.709 557.286 308.523 586.171 307.66 607.135C307.206 617.574 306.825 626.021 306.562 631.906C306.415 634.834 306.298 637.06 306.225 638.641C306.225 639.387 306.137 639.973 306.122 640.397C306.125 640.599 306.105 640.8 306.064 640.998Z" fill="#455A64"/>
<path d="M294.864 521.916C292.398 522.727 289.858 523.291 287.281 523.6C284.119 524.141 281.425 524.522 280.21 524.581V524.288C280.605 524.405 280.81 524.478 280.81 524.537C280.81 524.595 280.561 524.537 280.151 524.537H279.273L280.151 524.273C281.293 523.936 283.987 523.38 287.149 522.809C289.685 522.259 292.269 521.96 294.864 521.916Z" fill="#455A64"/>
<path d="M294.264 526.118C291.981 526.222 289.692 526.119 287.427 525.81C285.14 525.763 282.862 525.514 280.62 525.064C285.195 524.69 289.8 525.046 294.264 526.118Z" fill="#455A64"/>
<path opacity="0.2" d="M222.762 415.425C223.531 416.412 224.5 417.226 225.605 417.814C226.71 418.402 227.926 418.75 229.175 418.836C231.789 419.146 234.435 419.096 237.036 418.689C253.799 416.83 271.557 415.117 287.969 411.121C266.726 412.306 244.283 411.911 223.04 413.097L222.821 414.912" fill="black"/>
<g opacity="0.2">
<path opacity="0.2" d="M244.649 445.363L256.624 491.831L255.79 447.325L244.649 445.363Z" fill="black"/>
</g>
</svg>
